<svg xmlns="http://www.w3.org/2000/svg" xmlns:xlink="http://www.w3.org/1999/xlink" id="Calque_2" viewBox="0 0 1991 715.5"><defs><style>.cls-1{fill:url(#Dégradé_sans_nom_23-17);}.cls-2{fill:url(#Dégradé_sans_nom_23-18);}.cls-3{fill:url(#Dégradé_sans_nom_23-19);}.cls-4{fill:url(#Dégradé_sans_nom_23-23);}.cls-5{fill:url(#Dégradé_sans_nom_23-24);}.cls-6{fill:url(#Dégradé_sans_nom_23-21);}.cls-7{fill:url(#Dégradé_sans_nom_23-22);}.cls-8{fill:url(#Dégradé_sans_nom_23-20);}.cls-9{fill:url(#Dégradé_sans_nom_23-25);}.cls-10{fill:url(#Dégradé_sans_nom_23-16);}.cls-11{fill:url(#Dégradé_sans_nom_23-15);}.cls-12{fill:url(#Dégradé_sans_nom_23-10);}.cls-13{fill:url(#Dégradé_sans_nom_23-12);}.cls-14{fill:url(#Dégradé_sans_nom_23-11);}.cls-15{fill:url(#Dégradé_sans_nom_23-14);}.cls-16{fill:url(#Dégradé_sans_nom_23-13);}.cls-17{fill:url(#Dégradé_sans_nom_23);}.cls-18{fill:url(#Dégradé_sans_nom_23-5);}.cls-19{fill:url(#Dégradé_sans_nom_23-4);}.cls-20{fill:url(#Dégradé_sans_nom_23-2);}.cls-21{fill:url(#Dégradé_sans_nom_23-3);}.cls-22{fill:url(#Dégradé_sans_nom_23-8);}.cls-23{fill:url(#Dégradé_sans_nom_23-6);}.cls-24{fill:url(#Dégradé_sans_nom_23-7);}.cls-25{fill:url(#Dégradé_sans_nom_23-9);}</style><linearGradient id="D&#xE9;grad&#xE9;_sans_nom_23" x1="64.63" y1="217.95" x2="2239.66" y2="861.23" gradientUnits="userSpaceOnUse"><stop offset="0" stop-color="#1c3379"></stop><stop offset=".18" stop-color="#1f4b89"></stop><stop offset=".35" stop-color="#215c94"></stop><stop offset=".48" stop-color="#226298"></stop><stop offset=".96" stop-color="#2996b6"></stop></linearGradient><linearGradient id="D&#xE9;grad&#xE9;_sans_nom_23-2" x1="94.08" y1="118.38" x2="2269.11" y2="761.66" xlink:href="#D&#xE9;grad&#xE9;_sans_nom_23"></linearGradient><linearGradient id="D&#xE9;grad&#xE9;_sans_nom_23-3" x1="121.84" y1="24.51" x2="2296.87" y2="667.79" xlink:href="#D&#xE9;grad&#xE9;_sans_nom_23"></linearGradient><linearGradient id="D&#xE9;grad&#xE9;_sans_nom_23-4" x1="140.71" y1="-39.27" x2="2315.73" y2="604.01" xlink:href="#D&#xE9;grad&#xE9;_sans_nom_23"></linearGradient><linearGradient id="D&#xE9;grad&#xE9;_sans_nom_23-5" x1="158.76" y1="-100.31" x2="2333.78" y2="542.97" xlink:href="#D&#xE9;grad&#xE9;_sans_nom_23"></linearGradient><linearGradient id="D&#xE9;grad&#xE9;_sans_nom_23-6" x1="192.84" y1="-215.55" x2="2367.87" y2="427.73" xlink:href="#D&#xE9;grad&#xE9;_sans_nom_23"></linearGradient><linearGradient id="D&#xE9;grad&#xE9;_sans_nom_23-7" x1="-31.38" y1="542.58" x2="2143.64" y2="1185.87" xlink:href="#D&#xE9;grad&#xE9;_sans_nom_23"></linearGradient><linearGradient id="D&#xE9;grad&#xE9;_sans_nom_23-8" x1="-27.75" y1="530.29" x2="2147.28" y2="1173.57" xlink:href="#D&#xE9;grad&#xE9;_sans_nom_23"></linearGradient><linearGradient id="D&#xE9;grad&#xE9;_sans_nom_23-9" x1="-22.43" y1="512.32" x2="2152.59" y2="1155.6" xlink:href="#D&#xE9;grad&#xE9;_sans_nom_23"></linearGradient><linearGradient id="D&#xE9;grad&#xE9;_sans_nom_23-10" x1="-11.21" y1="474.38" x2="2163.81" y2="1117.66" xlink:href="#D&#xE9;grad&#xE9;_sans_nom_23"></linearGradient><linearGradient id="D&#xE9;grad&#xE9;_sans_nom_23-11" x1="11.56" y1="397.39" x2="2186.58" y2="1040.67" xlink:href="#D&#xE9;grad&#xE9;_sans_nom_23"></linearGradient><linearGradient id="D&#xE9;grad&#xE9;_sans_nom_23-12" x1="-5.59" y1="455.39" x2="2169.43" y2="1098.67" xlink:href="#D&#xE9;grad&#xE9;_sans_nom_23"></linearGradient><linearGradient id="D&#xE9;grad&#xE9;_sans_nom_23-13" x1="4.48" y1="421.33" x2="2179.5" y2="1064.62" xlink:href="#D&#xE9;grad&#xE9;_sans_nom_23"></linearGradient><linearGradient id="D&#xE9;grad&#xE9;_sans_nom_23-14" x1="13.68" y1="390.22" x2="2188.71" y2="1033.5" xlink:href="#D&#xE9;grad&#xE9;_sans_nom_23"></linearGradient><linearGradient id="D&#xE9;grad&#xE9;_sans_nom_23-15" x1="21.46" y1="363.9" x2="2196.49" y2="1007.18" xlink:href="#D&#xE9;grad&#xE9;_sans_nom_23"></linearGradient><linearGradient id="D&#xE9;grad&#xE9;_sans_nom_23-16" x1="28.44" y1="340.31" x2="2203.47" y2="983.59" xlink:href="#D&#xE9;grad&#xE9;_sans_nom_23"></linearGradient><linearGradient id="D&#xE9;grad&#xE9;_sans_nom_23-17" x1="44.11" y1="287.31" x2="2219.14" y2="930.6" xlink:href="#D&#xE9;grad&#xE9;_sans_nom_23"></linearGradient><linearGradient id="D&#xE9;grad&#xE9;_sans_nom_23-18" x1="54.28" y1="252.94" x2="2229.31" y2="896.23" xlink:href="#D&#xE9;grad&#xE9;_sans_nom_23"></linearGradient><linearGradient id="D&#xE9;grad&#xE9;_sans_nom_23-19" x1="55.08" y1="250.25" x2="2230.1" y2="893.54" xlink:href="#D&#xE9;grad&#xE9;_sans_nom_23"></linearGradient><linearGradient id="D&#xE9;grad&#xE9;_sans_nom_23-20" x1="72.78" y1="190.39" x2="2247.81" y2="833.67" xlink:href="#D&#xE9;grad&#xE9;_sans_nom_23"></linearGradient><linearGradient id="D&#xE9;grad&#xE9;_sans_nom_23-21" x1="82.51" y1="157.48" x2="2257.54" y2="800.76" xlink:href="#D&#xE9;grad&#xE9;_sans_nom_23"></linearGradient><linearGradient id="D&#xE9;grad&#xE9;_sans_nom_23-22" x1="95.2" y1="114.59" x2="2270.22" y2="757.88" xlink:href="#D&#xE9;grad&#xE9;_sans_nom_23"></linearGradient><linearGradient id="D&#xE9;grad&#xE9;_sans_nom_23-23" x1="97.51" y1="106.78" x2="2272.53" y2="750.07" xlink:href="#D&#xE9;grad&#xE9;_sans_nom_23"></linearGradient><linearGradient id="D&#xE9;grad&#xE9;_sans_nom_23-24" x1="104.49" y1="83.17" x2="2279.52" y2="726.45" xlink:href="#D&#xE9;grad&#xE9;_sans_nom_23"></linearGradient><linearGradient id="D&#xE9;grad&#xE9;_sans_nom_23-25" x1="111.47" y1="59.57" x2="2286.5" y2="702.86" xlink:href="#D&#xE9;grad&#xE9;_sans_nom_23"></linearGradient></defs><path class="cls-17" d="m292.91,92.18c-26.68-15.32-58.63-22.98-95.84-22.98-27.42,0-51.9,4.35-73.44,13.04-21.54,8.7-39.82,21.24-54.84,37.64-15.02,16.4-26.48,36.28-34.4,59.63-7.92,23.36-11.87,49.03-11.87,77.03s3.79,52.76,11.38,76.28c7.59,23.52,18.81,43.65,33.66,60.38,14.85,16.73,33.37,29.69,55.57,38.89,22.19,9.19,47.33,13.79,75.4,13.79s53.28-4.47,75.15-13.42c21.87-8.94,40.31-21.87,55.33-38.76,15.01-16.9,26.27-36.86,33.78-59.88,7.5-23.02,11.26-48.61,11.26-76.78,0-38.1-6.85-71.27-20.56-99.51-13.71-28.24-33.91-50.02-60.59-65.35Zm-6.36,237.17c-9.22,19.71-21.63,34.29-37.21,43.73-15.59,9.44-32.68,14.16-51.29,14.16-14.53,0-27.87-2.73-40.03-8.2-12.16-5.47-22.93-13.71-32.31-24.72-9.39-11.01-16.65-24.89-21.79-41.62-5.14-16.73-7.71-35.45-7.71-56.15s2.57-39.05,7.71-55.53c5.14-16.48,12.16-30.02,21.05-40.62,8.89-10.6,19.5-18.67,31.82-24.23,12.32-5.55,25.74-8.32,40.27-8.32,20.4,0,38.47,5.01,54.22,15.03,15.75,10.02,27.87,24.81,36.35,44.35,8.48,19.55,12.73,42.66,12.73,69.32,0,28.82-4.61,53.09-13.83,72.8Z"></path><path class="cls-20" d="m692.19,389.72c11.18-17.56,16.77-37.35,16.77-59.38,0-18.39-3.22-33.92-9.67-46.59-6.45-12.67-15.42-23.15-26.93-31.43-11.51-8.28-25.46-15.32-41.86-21.12-16.4-5.8-34.72-11.1-54.96-15.9-16.16-4.14-27.75-7.29-34.76-9.44-7.02-2.15-13.95-5.13-20.81-8.94-6.85-3.81-12.24-8.36-16.16-13.67-3.92-5.3-5.88-11.59-5.88-18.88,0-11.76,5.75-21.82,17.26-30.19,11.51-8.36,26.64-12.55,45.41-12.55,20.23,0,34.92,3.85,44.06,11.55,9.14,7.7,16.97,18.43,23.5,32.18,5.06,9.61,9.75,16.52,14.08,20.75,4.32,4.22,10.65,6.34,18.97,6.34,9.14,0,16.77-3.52,22.89-10.56,6.12-7.04,9.18-14.95,9.18-23.73,0-9.6-2.45-19.46-7.34-29.57-4.9-10.1-12.65-19.75-23.26-28.95-10.61-9.19-23.95-16.56-40.03-22.11-16.08-5.55-35.13-8.32-57.16-8.32-27.58,0-51.57,4.19-71.97,12.55-20.4,8.37-35.99,20.34-46.76,35.9-10.77,15.57-16.16,33.38-16.16,53.42,0,21.04,5.1,38.64,15.3,52.8,10.2,14.16,23.99,25.34,41.37,33.54,17.38,8.2,38.96,15.37,64.75,21.49,19.26,4.47,34.64,8.7,46.15,12.67,11.51,3.98,20.89,9.73,28.15,17.27,7.26,7.54,10.89,17.35,10.89,29.44,0,15.24-6.73,27.95-20.2,38.14-13.46,10.19-30.97,15.28-52.51,15.28-15.67,0-28.32-2.52-37.94-7.58-9.63-5.05-17.1-11.47-22.4-19.26-5.31-7.78-10.24-17.47-14.81-29.07-3.76-9.77-8.29-17.14-13.59-22.11-5.31-4.97-11.79-7.45-19.46-7.45-9.47,0-17.26,3.19-23.38,9.57-6.12,6.38-9.18,14.04-9.18,22.98,0,15.41,5.1,31.27,15.3,47.58,10.2,16.32,23.46,29.36,39.78,39.13,23.01,13.58,52.22,20.38,87.64,20.38,29.54,0,55.08-4.97,76.62-14.91,21.54-9.94,37.9-23.69,49.08-41.25Z"></path><path class="cls-21" d="m1038.59,389.1c-5.8-5.38-14.41-8.08-25.83-8.08h-169.41v-103.61h150.8c11.26,0,19.58-2.61,24.97-7.83,5.38-5.22,8.08-11.97,8.08-20.25s-2.74-14.95-8.2-20c-5.47-5.05-13.75-7.58-24.85-7.58h-150.8v-89.45h163.77c11.59,0,20.2-2.61,25.83-7.83,5.63-5.22,8.45-12.13,8.45-20.75s-2.81-15.28-8.45-20.5c-5.63-5.22-14.24-7.83-25.83-7.83h-191.93c-10.28,0-18.73,1.53-25.34,4.6-6.61,3.07-11.47,7.95-14.57,14.66-3.1,6.71-4.65,15.37-4.65,25.97v273.81c0,15.9,3.47,27.42,10.4,34.54,6.93,7.12,18.32,10.68,34.15,10.68h197.56c11.42,0,20.03-2.69,25.83-8.08,5.79-5.38,8.69-12.38,8.69-21s-2.9-16.11-8.69-21.49Z"></path><path class="cls-19" d="m1170.54,434.69c6.77-7.45,10.16-18.72,10.16-33.79V113.92c0-15.07-3.39-26.3-10.16-33.67-6.77-7.37-15.63-11.06-26.56-11.06s-19.26,3.73-25.95,11.18c-6.69,7.45-10.04,18.64-10.04,33.54v286.98c0,14.91,3.38,26.13,10.16,33.67,6.77,7.54,15.38,11.31,25.83,11.31s19.79-3.73,26.56-11.18Z"></path><path class="cls-18" d="m1546.19,365.24c7.83-14.49,13.62-30.77,17.38-48.82,3.75-18.05,5.63-38.02,5.63-59.88,0-66.26-18.69-115.62-56.06-148.09-14.36-12.75-30.36-21.45-47.98-26.09-17.63-4.64-38.76-6.96-63.41-6.96h-94.74c-15.67,0-27.01,3.56-34.03,10.68-7.02,7.12-10.53,18.64-10.53,34.54v267.11c0,11.76,1.02,21.33,3.06,28.7,2.04,7.37,6.4,13.09,13.1,17.14,6.69,4.06,16.65,6.09,29.87,6.09h94.74c16.48,0,31.29-1.08,44.43-3.23,13.14-2.15,25.42-5.88,36.84-11.18,11.42-5.3,21.95-12.34,31.58-21.12,12.24-11.43,22.28-24.39,30.11-38.89Zm-87.15-1.37c-5.39,4.81-11.75,8.53-19.09,11.18-7.34,2.65-14.44,4.31-21.3,4.97-6.85.66-16.32.99-28.4.99h-55.08v-247.23h47.98c22.19,0,41.13,2.45,56.79,7.33,15.67,4.89,28.84,16.27,39.54,34.16,10.69,17.89,16.04,44.81,16.04,80.75,0,51.02-12.16,86.96-36.48,107.84Z"></path><path class="cls-23" d="m1922.94,393.69c15.01-16.9,26.28-36.86,33.78-59.88,7.5-23.02,11.26-48.61,11.26-76.78,0-38.1-6.85-71.27-20.56-99.51-13.71-28.24-33.91-50.02-60.59-65.35-26.68-15.32-58.63-22.98-95.84-22.98-27.42,0-51.9,4.35-73.44,13.04-21.54,8.7-39.82,21.24-54.84,37.64-15.02,16.4-26.48,36.28-34.39,59.63-7.92,23.36-11.87,49.03-11.87,77.03s3.79,52.76,11.38,76.28c7.59,23.52,18.81,43.65,33.66,60.38,14.85,16.73,33.37,29.69,55.57,38.89,22.19,9.19,47.33,13.79,75.4,13.79s53.28-4.47,75.16-13.42c21.87-8.94,40.31-21.87,55.33-38.76Zm-42.47-64.35c-9.22,19.71-21.63,34.29-37.21,43.73-15.59,9.44-32.68,14.16-51.29,14.16-14.53,0-27.87-2.73-40.03-8.2-12.16-5.47-22.93-13.71-32.31-24.72-9.39-11.01-16.65-24.89-21.79-41.62-5.14-16.73-7.71-35.45-7.71-56.15s2.57-39.05,7.71-55.53c5.14-16.48,12.16-30.02,21.05-40.62,8.89-10.6,19.5-18.67,31.83-24.23,12.32-5.55,25.74-8.32,40.27-8.32,20.4,0,38.47,5.01,54.22,15.03,15.75,10.02,27.87,24.81,36.35,44.35,8.48,19.55,12.73,42.66,12.73,69.32,0,28.82-4.61,53.09-13.83,72.8Z"></path><polygon class="cls-24" points="43.99 580.88 124.44 580.88 124.44 563.56 43.99 563.56 43.99 518.35 129.9 518.35 129.9 500.92 24.74 500.92 24.74 648.54 133.27 648.54 133.27 631.12 43.99 631.12 43.99 580.88"></polygon><path class="cls-22" d="m238.07,551.77c-2.65-3.76-6.63-6.8-11.95-9.11-5.32-2.32-11.16-3.47-17.51-3.47-14.62,0-25.79,5.88-33.53,17.62v-15.21h-16.07v106.94h17.86v-58.4c0-13.69,2.76-22.99,8.28-27.89,5.52-4.9,12.09-7.35,19.69-7.35,4.76,0,8.91,1.09,12.45,3.27,3.54,2.18,6,5.1,7.39,8.76,1.39,3.66,2.08,9.18,2.08,16.56v65.05h17.86v-65.75c0-8.39-.33-14.26-.99-17.62-1.06-5.17-2.91-9.63-5.56-13.39Z"></path><path class="cls-25" d="m342.97,554.49c-8.07-10.2-18.32-15.31-30.75-15.31-9.33,0-17.45,2.35-24.36,7.05-6.91,4.7-12.19,11.36-15.82,19.99-3.64,8.63-5.46,18.04-5.46,28.25,0,14.84,3.97,27.56,11.9,38.16,7.94,10.61,19.15,15.91,33.63,15.91,11.64,0,21.36-4.67,29.17-14,.06,11.82-.36,19.57-1.29,23.26-1.59,6.04-4.63,10.74-9.13,14.1-4.5,3.36-10.88,5.03-19.15,5.03-7.67,0-13.73-1.68-18.16-5.03-3.31-2.48-5.32-6.44-6.05-11.88l-17.36-2.62c-.27,11.54,3.47,20.19,11.21,25.93,7.74,5.74,17.89,8.61,30.46,8.61,10.58,0,19.49-2.01,26.74-6.04,7.24-4.03,12.53-9.52,15.87-16.46,3.34-6.95,5.01-18.75,5.01-35.39v-92.44h-16.47v12.89Zm-8.53,69.43c-5.56,6.41-12.44,9.62-20.64,9.62s-15.15-3.22-20.64-9.67c-5.49-6.44-8.23-16.68-8.23-30.71,0-12.89,2.78-22.61,8.33-29.15s12.3-9.82,20.24-9.82,14.96,3.32,20.68,9.97c5.72,6.65,8.58,16.51,8.58,29.6s-2.78,23.75-8.33,30.16Z"></path><rect class="cls-12" x="387.94" y="541.6" width="17.86" height="106.94"></rect><rect class="cls-14" x="387.94" y="500.92" width="17.86" height="20.84"></rect><path class="cls-13" d="m513.47,551.77c-2.65-3.76-6.63-6.8-11.95-9.11-5.32-2.32-11.16-3.47-17.51-3.47-14.62,0-25.79,5.88-33.53,17.62v-15.21h-16.07v106.94h17.86v-58.4c0-13.69,2.76-22.99,8.28-27.89,5.52-4.9,12.09-7.35,19.69-7.35,4.76,0,8.91,1.09,12.45,3.27,3.54,2.18,6,5.1,7.39,8.76,1.39,3.66,2.08,9.18,2.08,16.56v65.05h17.86v-65.75c0-8.39-.33-14.26-.99-17.62-1.06-5.17-2.91-9.63-5.56-13.39Z"></path><path class="cls-16" d="m592.08,539.19c-14.55,0-26.39,4.97-35.52,14.9-9.13,9.94-13.69,23.9-13.69,41.89s4.51,30.9,13.54,40.53c9.03,9.63,21.25,14.45,36.66,14.45,12.24,0,22.29-3.02,30.16-9.06,7.87-6.04,13.26-14.53,16.17-25.48l-18.45-2.32c-2.71,7.65-6.38,13.23-11.01,16.72-4.63,3.49-10.22,5.24-16.77,5.24-8.8,0-16.14-3.12-22.02-9.36-5.89-6.24-9.16-15.24-9.82-26.99h78.57c.07-2.15.1-3.76.1-4.83,0-17.65-4.46-31.35-13.39-41.08-8.93-9.73-20.44-14.6-34.52-14.6Zm-29.76,45.61c.6-9.33,3.69-16.78,9.28-22.35,5.59-5.57,12.48-8.36,20.69-8.36,9.06,0,16.43,3.49,22.12,10.47,3.7,4.5,5.95,11.25,6.75,20.24h-58.83Z"></path><path class="cls-15" d="m706.5,539.19c-14.55,0-26.39,4.97-35.52,14.9-9.13,9.94-13.69,23.9-13.69,41.89s4.51,30.9,13.54,40.53c9.03,9.63,21.25,14.45,36.66,14.45,12.24,0,22.29-3.02,30.16-9.06,7.87-6.04,13.26-14.53,16.17-25.48l-18.45-2.32c-2.71,7.65-6.38,13.23-11.01,16.72-4.63,3.49-10.22,5.24-16.77,5.24-8.8,0-16.14-3.12-22.02-9.36-5.89-6.24-9.16-15.24-9.82-26.99h78.57c.07-2.15.1-3.76.1-4.83,0-17.65-4.46-31.35-13.39-41.08-8.93-9.73-20.44-14.6-34.52-14.6Zm-29.76,45.61c.6-9.33,3.69-16.78,9.28-22.35,5.59-5.57,12.48-8.36,20.69-8.36,9.06,0,16.43,3.49,22.12,10.47,3.7,4.5,5.95,11.25,6.75,20.24h-58.83Z"></path><path class="cls-11" d="m804.9,542.81c-3.47,2.42-7.26,7.42-11.36,15v-16.21h-16.07v106.94h17.86v-55.99c0-7.65.99-14.7,2.98-21.15,1.32-4.23,3.54-7.54,6.65-9.92,3.11-2.38,6.61-3.57,10.52-3.57,4.37,0,8.73,1.31,13.1,3.93l6.15-16.82c-6.22-3.89-12.34-5.84-18.35-5.84-4.17,0-7.99,1.21-11.46,3.62Z"></path><path class="cls-10" d="m890,539.19c-14.55,0-26.39,4.97-35.52,14.9-9.13,9.94-13.69,23.9-13.69,41.89s4.51,30.9,13.54,40.53c9.03,9.63,21.25,14.45,36.66,14.45,12.24,0,22.29-3.02,30.16-9.06,7.87-6.04,13.26-14.53,16.17-25.48l-18.45-2.32c-2.71,7.65-6.38,13.23-11.01,16.72-4.63,3.49-10.22,5.24-16.77,5.24-8.8,0-16.14-3.12-22.02-9.36-5.89-6.24-9.16-15.24-9.82-26.99h78.57c.07-2.15.1-3.76.1-4.83,0-17.65-4.46-31.35-13.39-41.08-8.93-9.73-20.44-14.6-34.52-14.6Zm-29.76,45.61c.6-9.33,3.69-16.78,9.28-22.35,5.59-5.57,12.48-8.36,20.69-8.36,9.06,0,16.43,3.49,22.12,10.47,3.7,4.5,5.95,11.25,6.75,20.24h-58.83Z"></path><path class="cls-1" d="m1028.33,553.89c-3.11-4.36-7.14-7.9-12.1-10.62-4.96-2.72-10.62-4.08-16.96-4.08-8.67,0-16.5,2.32-23.51,6.95-7.01,4.63-12.27,11.29-15.77,19.99-3.51,8.69-5.26,18.38-5.26,29.05s1.93,20.63,5.8,29.05c3.87,8.42,9.33,14.99,16.37,19.69,7.04,4.7,14.77,7.05,23.17,7.05,12.96,0,22.78-5.3,29.46-15.91v13.49h16.57v-147.62h-17.76v52.96Zm-6.7,72.45c-5.46,6.48-12.09,9.72-19.89,9.72s-14.45-3.39-20.14-10.17c-5.69-6.78-8.53-17.02-8.53-30.71s2.66-24.54,7.99-31.11c5.32-6.58,11.96-9.87,19.89-9.87s14.98,3.42,20.54,10.27c5.56,6.85,8.33,17.59,8.33,32.22,0,13.29-2.73,23.18-8.18,29.65Z"></path><path class="cls-2" d="m1212.77,554.34c-3.74-4.8-8.5-8.52-14.29-11.18-5.79-2.65-11.92-3.98-18.4-3.98-11.71,0-21.33,4.8-28.87,14.4v-52.66h-17.86v147.62h16.57v-13.39c7.08,10.54,16.83,15.81,29.27,15.81s23.21-5,32.14-15c8.93-10,13.39-24.17,13.39-42.49,0-7.72-1.06-14.97-3.17-21.75-2.12-6.78-5.04-12.57-8.78-17.37Zm-14.83,71.39c-5.69,6.88-12.43,10.32-20.24,10.32-9.59,0-17.2-4.67-22.82-14-3.44-5.71-5.16-14.97-5.16-27.79s2.84-22.97,8.53-29.86c5.69-6.88,12.43-10.32,20.24-10.32s14.33,3.32,19.79,9.97c5.46,6.65,8.18,16.95,8.18,30.91s-2.84,23.88-8.53,30.76Z"></path><path class="cls-3" d="m1293.91,603.93c-2.84,7.92-5.29,16.04-7.34,24.37-2.25-8.66-4.8-16.92-7.64-24.77l-21.92-61.93h-19.25l39.98,107.14c-.73,1.95-1.26,3.42-1.59,4.43-2.51,7.18-4.33,11.68-5.46,13.49-1.52,2.42-3.47,4.29-5.85,5.64-2.38,1.34-5.56,2.01-9.52,2.01-2.91,0-6.32-.54-10.22-1.61l1.98,17.02c4.23,1.48,8.07,2.21,11.51,2.21,5.69,0,10.58-1.39,14.68-4.18,4.1-2.79,7.74-7.17,10.91-13.14,2.38-4.43,5.72-12.52,10.02-24.27l40.08-108.75h-17.86l-22.52,62.33Z"></path><path class="cls-8" d="m1487.83,551.77c-2.65-3.76-6.63-6.8-11.96-9.11-5.32-2.32-11.16-3.47-17.51-3.47-14.62,0-25.79,5.88-33.53,17.62v-15.21h-16.07v106.94h17.86v-58.4c0-13.69,2.76-22.99,8.28-27.89,5.52-4.9,12.09-7.35,19.69-7.35,4.76,0,8.91,1.09,12.45,3.27,3.54,2.18,6,5.1,7.39,8.76,1.39,3.66,2.08,9.18,2.08,16.56v65.05h17.86v-65.75c0-8.39-.33-14.26-.99-17.62-1.06-5.17-2.91-9.63-5.56-13.39Z"></path><path class="cls-6" d="m1608.5,603.73v-24.17c0-8.06-.3-13.63-.89-16.72-1.06-4.97-2.91-9.08-5.56-12.33-2.65-3.25-6.78-5.96-12.4-8.11-5.62-2.15-12.93-3.22-21.92-3.22s-17.03,1.26-23.91,3.78c-6.88,2.52-12.14,6.11-15.77,10.77-3.64,4.67-6.25,10.79-7.84,18.38l17.46,2.42c1.92-7.58,4.88-12.87,8.88-15.86,4-2.99,10.2-4.48,18.6-4.48,8.99,0,15.77,2.05,20.34,6.14,3.37,3.02,5.06,8.22,5.06,15.61,0,.67-.03,2.25-.1,4.73-6.81,2.42-17.43,4.5-31.85,6.24-7.08.87-12.37,1.78-15.87,2.72-4.76,1.34-9.05,3.32-12.85,5.94-3.8,2.62-6.88,6.09-9.23,10.42-2.35,4.33-3.52,9.11-3.52,14.35,0,8.93,3.11,16.26,9.33,22,6.22,5.74,15.11,8.61,26.69,8.61,7.01,0,13.58-1.18,19.69-3.52,6.12-2.35,12.48-6.38,19.1-12.08.53,5.03,1.72,9.43,3.57,13.19h18.65c-2.25-4.09-3.75-8.37-4.51-12.84-.76-4.46-1.14-15.12-1.14-31.97Zm-18.06-2.21c0,7.99-.96,14.03-2.88,18.12-2.51,5.3-6.45,9.48-11.81,12.54-5.36,3.05-11.48,4.58-18.35,4.58s-12.22-1.61-15.82-4.83c-3.61-3.22-5.41-7.25-5.41-12.08,0-3.16.83-6.02,2.48-8.61,1.65-2.58,4-4.55,7.04-5.89,3.04-1.34,8.23-2.55,15.58-3.62,12.96-1.88,22.68-4.16,29.17-6.85v6.65Z"></path><path class="cls-7" d="m1668.75,633.03c-2.65,0-4.68-.44-6.1-1.31-1.42-.87-2.45-2.05-3.08-3.52-.63-1.48-.94-4.8-.94-9.97v-62.53h17.96v-14.1h-17.96v-37.36l-17.76,10.88v26.48h-13.1v14.1h13.1v61.52c0,10.88.73,18.01,2.18,21.4,1.45,3.39,3.97,6.13,7.54,8.21,3.57,2.08,8.6,3.12,15.08,3.12,3.97,0,8.47-.54,13.49-1.61l-2.58-16.01c-3.24.47-5.85.71-7.84.71Z"></path><path class="cls-4" d="m1762.64,598.9c0,9.13-.98,16.09-2.93,20.89-1.95,4.8-5.27,8.59-9.97,11.38-4.7,2.79-9.72,4.18-15.08,4.18s-9.86-1.36-13.49-4.08c-3.64-2.72-6.02-6.46-7.14-11.23-.73-3.29-1.09-9.67-1.09-19.13v-59.31h-17.86v66.26c0,7.72.36,13.36,1.09,16.92,1.06,5.3,2.89,9.78,5.51,13.44,2.61,3.66,6.61,6.7,12,9.11,5.39,2.42,11.19,3.62,17.41,3.62,14.09,0,25.23-6.04,33.43-18.12v15.71h15.97v-106.94h-17.86v57.29Z"></path><path class="cls-5" d="m1837.12,542.81c-3.47,2.42-7.26,7.42-11.36,15v-16.21h-16.07v106.94h17.86v-55.99c0-7.65.99-14.7,2.98-21.15,1.32-4.23,3.54-7.54,6.65-9.92,3.11-2.38,6.61-3.57,10.52-3.57,4.37,0,8.73,1.31,13.1,3.93l6.15-16.82c-6.22-3.89-12.34-5.84-18.35-5.84-4.17,0-7.99,1.21-11.46,3.62Z"></path><path class="cls-9" d="m1970.15,594.87c0-17.65-4.46-31.35-13.39-41.08-8.93-9.73-20.44-14.6-34.52-14.6s-26.39,4.97-35.52,14.9c-9.13,9.94-13.69,23.9-13.69,41.89s4.51,30.9,13.54,40.53c9.03,9.63,21.25,14.45,36.66,14.45,12.24,0,22.29-3.02,30.16-9.06,7.87-6.04,13.26-14.53,16.17-25.48l-18.45-2.32c-2.71,7.65-6.38,13.23-11.01,16.72-4.63,3.49-10.22,5.24-16.77,5.24-8.8,0-16.14-3.12-22.02-9.36-5.89-6.24-9.16-15.24-9.82-26.99h78.57c.07-2.15.1-3.76.1-4.83Zm-77.68-10.07c.59-9.33,3.69-16.78,9.28-22.35,5.59-5.57,12.48-8.36,20.68-8.36,9.06,0,16.43,3.49,22.12,10.47,3.7,4.5,5.95,11.25,6.75,20.24h-58.83Z"></path></svg>