<?xml version="1.0" encoding="UTF-8"?>
<svg xmlns="http://www.w3.org/2000/svg" viewBox="0 0 1200 800" role="img" aria-labelledby="sc-title sc-desc">
  <title id="sc-title">Equipe sans chef - de la pyramide au cercle</title>
  <desc id="sc-desc">Avant : hierarchie en triangle. Apres : equipe en cercle sans sommet.</desc>
  <defs>
    <linearGradient id="sc-bg" x1="0" y1="0" x2="1" y2="1">
      <stop offset="0%" stop-color="#1a2a3a"/>
      <stop offset="50%" stop-color="#243447"/>
      <stop offset="100%" stop-color="#1a3d52"/>
    </linearGradient>
    <linearGradient id="sc-panel-before" x1="0" y1="0" x2="0" y2="1">
      <stop offset="0%" stop-color="#3d4f5f"/>
      <stop offset="100%" stop-color="#2a3845"/>
    </linearGradient>
    <linearGradient id="sc-panel-after" x1="0" y1="0" x2="0" y2="1">
      <stop offset="0%" stop-color="#2a5a78"/>
      <stop offset="100%" stop-color="#1e4a62"/>
    </linearGradient>
    <marker id="sc-arr" markerWidth="8" markerHeight="8" refX="6" refY="3" orient="auto">
      <path d="M0,0 L6,3 L0,6 Z" fill="#F8F9FA"/>
    </marker>
  </defs>

  <rect width="1200" height="800" fill="url(#sc-bg)"/>

  <text x="600" y="64" text-anchor="middle" font-family="Georgia, serif" font-size="40" fill="#F8F9FA" font-weight="700">Equipe sans chef</text>
  <text x="600" y="100" text-anchor="middle" font-family="Arial, Helvetica, sans-serif" font-size="18" fill="#9bb4c7">De la hierarchie au collectif</text>

  <rect x="70" y="140" width="480" height="560" rx="24" fill="url(#sc-panel-before)"/>
  <text x="310" y="188" text-anchor="middle" font-family="Arial, Helvetica, sans-serif" font-size="15" letter-spacing="3" fill="#c5a17a" font-weight="700">AVANT</text>
  <text x="310" y="218" text-anchor="middle" font-family="Georgia, serif" font-size="26" fill="#F8F9FA">Pyramide</text>

  <polygon points="310,248 150,555 470,555" fill="none" stroke="#e67e22" stroke-opacity="0.28" stroke-width="2" stroke-dasharray="8 8"/>

  <g stroke="#e67e22" stroke-opacity="0.5" stroke-width="2" fill="none">
    <line x1="310" y1="326" x2="230" y2="372"/>
    <line x1="310" y1="326" x2="390" y2="372"/>
    <line x1="230" y1="428" x2="180" y2="484"/>
    <line x1="230" y1="428" x2="310" y2="484"/>
    <line x1="390" y1="428" x2="310" y2="484"/>
    <line x1="390" y1="428" x2="440" y2="484"/>
  </g>

  <circle cx="310" cy="290" r="36" fill="#e67e22"/>
  <circle cx="301" cy="285" r="7" fill="#fdebd0"/>
  <circle cx="319" cy="285" r="7" fill="#fdebd0"/>
  <rect x="298" y="297" width="24" height="9" rx="4" fill="#fdebd0"/>
  <text x="310" y="352" text-anchor="middle" font-family="Arial, Helvetica, sans-serif" font-size="13" fill="#e8c9a0">Chef</text>

  <circle cx="230" cy="400" r="28" fill="#7f8c8d"/>
  <circle cx="223" cy="397" r="5.5" fill="#ecf0f1"/>
  <circle cx="237" cy="397" r="5.5" fill="#ecf0f1"/>
  <rect x="220" y="406" width="20" height="7" rx="3.5" fill="#ecf0f1"/>

  <circle cx="390" cy="400" r="28" fill="#7f8c8d"/>
  <circle cx="383" cy="397" r="5.5" fill="#ecf0f1"/>
  <circle cx="397" cy="397" r="5.5" fill="#ecf0f1"/>
  <rect x="380" y="406" width="20" height="7" rx="3.5" fill="#ecf0f1"/>

  <circle cx="180" cy="510" r="26" fill="#95a5a6"/>
  <circle cx="174" cy="507" r="5" fill="#ecf0f1"/>
  <circle cx="186" cy="507" r="5" fill="#ecf0f1"/>
  <rect x="171" y="515" width="18" height="6" rx="3" fill="#ecf0f1"/>

  <circle cx="310" cy="510" r="26" fill="#95a5a6"/>
  <circle cx="304" cy="507" r="5" fill="#ecf0f1"/>
  <circle cx="316" cy="507" r="5" fill="#ecf0f1"/>
  <rect x="301" y="515" width="18" height="6" rx="3" fill="#ecf0f1"/>

  <circle cx="440" cy="510" r="26" fill="#95a5a6"/>
  <circle cx="434" cy="507" r="5" fill="#ecf0f1"/>
  <circle cx="446" cy="507" r="5" fill="#ecf0f1"/>
  <rect x="431" y="515" width="18" height="6" rx="3" fill="#ecf0f1"/>

  <text x="310" y="650" text-anchor="middle" font-family="Arial, Helvetica, sans-serif" font-size="15" fill="#aab4be">Un sommet - un goulot</text>

  <circle cx="600" cy="420" r="36" fill="#3498DB"/>
  <path d="M586,418 L606,418 L606,410 L616,420 L606,430 L606,422 L586,422 Z" fill="#F8F9FA"/>

  <rect x="650" y="140" width="480" height="560" rx="24" fill="url(#sc-panel-after)"/>
  <text x="890" y="188" text-anchor="middle" font-family="Arial, Helvetica, sans-serif" font-size="15" letter-spacing="3" fill="#7dcea0" font-weight="700">APRES</text>
  <text x="890" y="218" text-anchor="middle" font-family="Georgia, serif" font-size="26" fill="#F8F9FA">Cercle</text>

  <circle cx="890" cy="430" r="145" fill="none" stroke="#5dade2" stroke-opacity="0.22" stroke-width="10"/>
  <circle cx="890" cy="430" r="145" fill="none" stroke="#1abc9c" stroke-opacity="0.6" stroke-width="3"/>

  <circle cx="890" cy="430" r="48" fill="#ffffff" fill-opacity="0.08" stroke="#F8F9FA" stroke-opacity="0.35" stroke-width="1.5" stroke-dasharray="4 5"/>
  <text x="890" y="425" text-anchor="middle" font-family="Georgia, serif" font-size="15" fill="#d5e8f0">Sans</text>
  <text x="890" y="445" text-anchor="middle" font-family="Georgia, serif" font-size="15" fill="#d5e8f0">chef</text>

  <circle cx="890" cy="285" r="30" fill="#3498DB"/>
  <circle cx="882" cy="282" r="6" fill="#ecf6fc"/>
  <circle cx="898" cy="282" r="6" fill="#ecf6fc"/>
  <rect x="879" y="292" width="22" height="8" rx="4" fill="#ecf6fc"/>

  <circle cx="1015" cy="360" r="30" fill="#1abc9c"/>
  <circle cx="1007" cy="357" r="6" fill="#e8faf6"/>
  <circle cx="1023" cy="357" r="6" fill="#e8faf6"/>
  <rect x="1004" y="367" width="22" height="8" rx="4" fill="#e8faf6"/>

  <circle cx="1015" cy="500" r="30" fill="#5dade2"/>
  <circle cx="1007" cy="497" r="6" fill="#eef6fc"/>
  <circle cx="1023" cy="497" r="6" fill="#eef6fc"/>
  <rect x="1004" y="507" width="22" height="8" rx="4" fill="#eef6fc"/>

  <circle cx="890" cy="575" r="30" fill="#3498DB"/>
  <circle cx="882" cy="572" r="6" fill="#ecf6fc"/>
  <circle cx="898" cy="572" r="6" fill="#ecf6fc"/>
  <rect x="879" y="582" width="22" height="8" rx="4" fill="#ecf6fc"/>

  <circle cx="765" cy="500" r="30" fill="#1abc9c"/>
  <circle cx="757" cy="497" r="6" fill="#e8faf6"/>
  <circle cx="773" cy="497" r="6" fill="#e8faf6"/>
  <rect x="754" y="507" width="22" height="8" rx="4" fill="#e8faf6"/>

  <circle cx="765" cy="360" r="30" fill="#5dade2"/>
  <circle cx="757" cy="357" r="6" fill="#eef6fc"/>
  <circle cx="773" cy="357" r="6" fill="#eef6fc"/>
  <rect x="754" y="367" width="22" height="8" rx="4" fill="#eef6fc"/>

  <path d="M960 300 A120 120 0 0 1 1020 420" fill="none" stroke="#F8F9FA" stroke-width="2.5" stroke-linecap="round" opacity="0.55" marker-end="url(#sc-arr)"/>

  <text x="890" y="650" text-anchor="middle" font-family="Arial, Helvetica, sans-serif" font-size="15" fill="#a8d5c4">Pairs egaux - roles tournants</text>
</svg>
